<svg width="33" height="23" viewBox="0 0 33 23" fill="none" xmlns="http://www.w3.org/2000/svg">
<circle cx="7.79995" cy="15.2" r="6" fill="#24252E" stroke="#24252E" stroke-width="3.2"/>
<path d="M12.0636 0.918127C4.30094 2.95274 -0.0839128 13.9474 1.19743 14.7616L1.21035 14.7591C2.28116 14.5509 3.16742 13.8097 3.57017 12.7959C4.37774 10.7632 5.34678 8.5027 6.55195 7.06316C7.29221 6.17895 7.93993 5.22106 9.79058 4.11579L12.644 2.38386C13.0498 2.13757 13.1561 1.59582 12.8736 1.21442C12.6864 0.961766 12.3677 0.838405 12.0636 0.918127Z" fill="#24252E"/>
<path d="M1.46268 14.8C-0.558988 15.1921 3.87126 3.06537 12.0636 0.918127C12.3677 0.838405 12.6864 0.961766 12.8736 1.21442V1.21442C13.1561 1.59582 13.0498 2.13757 12.644 2.38386L9.79058 4.11579C7.93993 5.22106 7.29221 6.17895 6.55195 7.06316C5.34678 8.5027 4.37774 10.7632 3.57017 12.7959C3.16742 13.8097 2.28116 14.5509 1.21035 14.7591L1.00002 14.8" stroke="#24252E" stroke-width="1.2"/>
<circle cx="24.6" cy="15.2" r="6" fill="#24252E" stroke="#24252E" stroke-width="3.2"/>
<path d="M28.8635 0.918127C21.1009 2.95274 16.716 13.9474 17.9974 14.7616L18.0103 14.7591C19.0811 14.5509 19.9673 13.8097 20.3701 12.7959C21.1777 10.7632 22.1467 8.5027 23.3519 7.06316C24.0921 6.17895 24.7399 5.22106 26.5905 4.11579L29.4439 2.38386C29.8497 2.13757 29.9561 1.59582 29.6735 1.21442C29.4863 0.961766 29.1677 0.838405 28.8635 0.918127Z" fill="#24252E"/>
<path d="M18.2626 14.8C16.2409 15.1921 20.6712 3.06537 28.8635 0.918127C29.1677 0.838405 29.4863 0.961766 29.6735 1.21442V1.21442C29.9561 1.59582 29.8497 2.13757 29.4439 2.38386L26.5905 4.11579C24.7399 5.22106 24.0921 6.17895 23.3519 7.06316C22.1467 8.5027 21.1777 10.7632 20.3701 12.7959C19.9673 13.8097 19.0811 14.5509 18.0103 14.7591L17.7999 14.8" stroke="#24252E" stroke-width="1.2"/>
</svg>
