<svg width="36" height="36" viewBox="0 0 36 36" fill="none" xmlns="http://www.w3.org/2000/svg">
<path d="M31.4 13.7H22.2V4.49995C22.2 2.19995 20.3 0.199951 17.9 0.199951C15.6 0.199951 13.7 2.09995 13.7 4.49995V13.7H4.50001C2.00001 13.7 8.85129e-06 15.8 0.300009 18.4C0.500009 20.6 2.50001 22.2 4.70001 22.2H13.7V31.4C13.7 33.9 15.8 35.8999 18.4 35.5999C20.6 35.3999 22.2 33.4 22.2 31.2V22.2H31.4C33.7 22.2 35.6 20.2999 35.6 18C35.6 15.7 33.8 13.7 31.4 13.7Z" fill="#1C303A" fill-opacity="0.5"/>
</svg>
